<svg width="24" height="16" viewBox="0 0 24 16" fill="none" xmlns="http://www.w3.org/2000/svg">
<path d="M7.93891 0C3.55493 0 0 3.58228 0 7.99999H3.97163C3.97163 5.79113 5.74692 3.99781 7.94325 3.99781H13.8985V0H7.94325H7.93891Z" fill="white"/>
<path d="M7.93891 8.00047C3.55493 8.00047 0 11.5827 0 16.0005H3.97163C3.97163 13.7916 5.74692 11.9983 7.94325 11.9983H13.8985V7.99609H7.94325L7.93891 8.00047Z" fill="#AD56D6"/>
<path d="M15.8928 11.9978H9.9375V16H15.8928C20.2768 16 23.8317 12.4177 23.8317 8H19.8601C19.8601 10.2089 18.0848 12.0022 15.8884 12.0022L15.8928 11.9978Z" fill="#AD56D6"/>
<path d="M23.8282 0H19.8566C19.8566 2.20885 18.0813 4.00218 15.885 4.00218H9.92969V8.00436H15.885C20.2689 8.00436 23.8239 4.42208 23.8239 0.00437386L23.8282 0Z" fill="white"/>
</svg>
