<svg width="512" height="512" version="1.1" viewBox="0 0 135.47 135.47" xmlns="http://www.w3.org/2000/svg"><g transform="matrix(21.484 0 0 21.484 -2188.5 -3121.2)" stroke-width=".26458"><path d="m103.97 146.31c-1.1599 0-2.1005 0.94781-2.1005 2.1167h1.0508c0-0.58442 0.46971-1.0589 1.0508-1.0589h1.5757v-1.0578h-1.5757z" fill="#fff"/><path d="m103.97 148.43c-1.1599 0-2.1005 0.9478-2.1005 2.1167h1.0508c0-0.58444 0.46971-1.0589 1.0508-1.0589h1.5757v-1.0589h-1.5757z" fill="#ad56d6"/><path d="m106.07 149.49h-1.5757v1.0589h1.5757c1.1599 0 2.1005-0.94781 2.1005-2.1167h-1.0508c0 0.58443-0.46971 1.0589-1.0508 1.0589z" fill="#ad56d6"/><path d="m108.17 146.31h-1.0508c0 0.58442-0.46972 1.0589-1.0508 1.0589h-1.5757v1.0589h1.5757c1.1599 0 2.1005-0.94781 2.1005-2.1167z" fill="#fff"/></g></svg>
