<?xml version="1.0" encoding="UTF-8" standalone="no"?>
<!-- Created with Inkscape (http://www.inkscape.org/) -->

<svg
   width="512"
   height="512"
   viewBox="0 0 135.46666 135.46667"
   version="1.1"
   id="svg1"
   inkscape:version="1.3.2 (091e20ef0f, 2023-11-25)"
   sodipodi:docname="favicon.svg"
   xmlns:inkscape="http://www.inkscape.org/namespaces/inkscape"
   xmlns:sodipodi="http://sodipodi.sourceforge.net/DTD/sodipodi-0.dtd"
   xmlns="http://www.w3.org/2000/svg"
   xmlns:svg="http://www.w3.org/2000/svg">
  <sodipodi:namedview
     id="namedview1"
     pagecolor="#ffffff"
     bordercolor="#666666"
     borderopacity="1.0"
     inkscape:showpageshadow="2"
     inkscape:pageopacity="0.0"
     inkscape:pagecheckerboard="true"
     inkscape:deskcolor="#d1d1d1"
     inkscape:document-units="px"
     inkscape:zoom="0.44141765"
     inkscape:cx="265.0551"
     inkscape:cy="781.57274"
     inkscape:window-width="2194"
     inkscape:window-height="1234"
     inkscape:window-x="0"
     inkscape:window-y="0"
     inkscape:window-maximized="1"
     inkscape:current-layer="svg1"
     inkscape:export-bgcolor="#00000000" />
  <defs
     id="defs1" />
  <rect
     style="fill:#15071c;fill-opacity:1;stroke-width:0.194998;stroke-linecap:round;stroke-linejoin:bevel"
     id="rect3"
     width="135.46666"
     height="135.46666"
     x="0"
     y="0"
     rx="16.933332"
     ry="16.933332" />
  <g
     id="g2"
     transform="matrix(19.302024,0,0,19.302024,-1959.3134,-2797.266)">
    <g
       id="g3"
       transform="translate(0,-1.0020564e-5)">
      <path
         id="path1"
         style="fill:#ffffff;fill-opacity:1;stroke-width:0.264583"
         d="m 107.11832,146.31194 c 0.016,0.57249 -0.50349,1.08822 -1.07744,1.05891 h -0.49898 v -1.05628 h -1.57683 c -0.91857,-0.0154 -1.78568,0.65158 -2.02079,1.53725 -0.0327,0.17377 -0.12052,0.44027 -0.0531,0.57941 h 1.02421 c -0.016,-0.57249 0.50349,-1.08823 1.07744,-1.05891 h 0.49896 v 1.05744 c 0.57905,-0.004 1.15848,0.008 1.73727,-0.006 0.93373,-0.0565 1.75779,-0.81467 1.90612,-1.73582 0.0228,-0.12385 0.0314,-0.2508 0.0339,-0.37581 l 2e-5,-1.9e-4 z" />
      <path
         id="path2"
         style="fill:#ad56d6;fill-opacity:1;stroke-width:0.264583"
         d="m 107.11923,148.42861 c 0,0.58443 -0.46972,1.05893 -1.05085,1.05893 l 10e-4,-0.001 h -0.52766 v -1.05615 h -1.57568 l -0.001,0.001 c -1.15992,0 -2.10049,0.94781 -2.10049,2.11669 h 1.05082 c 0,-0.58444 0.46972,-1.05894 1.05082,-1.05894 h 0.52766 v 1.05615 h 1.57568 c 1.15993,0 2.10049,-0.94781 2.10049,-2.11666 z" />
    </g>
  </g>
  <g
     inkscape:label="Layer 1"
     inkscape:groupmode="layer"
     id="layer1" />
</svg>
